<?xml version="1.0" standalone="no"?>
<!DOCTYPE svg PUBLIC "-//W3C//DTD SVG 20010904//EN"
 "http://www.w3.org/TR/2001/REC-SVG-20010904/DTD/svg10.dtd">
<svg version="1.0" xmlns="http://www.w3.org/2000/svg"
 width="600.000000pt" height="600.000000pt" viewBox="0 0 600.000000 600.000000"
 preserveAspectRatio="xMidYMid meet">
<metadata>
Created by potrace 1.14, written by Peter Selinger 2001-2017
</metadata>
<g transform="translate(0.000000,600.000000) scale(0.100000,-0.100000)"
fill="#000000" stroke="none">
<path d="M3253 4583 c-21 -32 -22 -55 -25 -1906 l-3 -1187 588 0 588 0 -6 47
c-114 808 -690 2524 -997 2970 -73 105 -112 126 -145 76z"/>
<path d="M1376 1092 c169 -164 189 -176 369 -206 170 -29 404 -59 610 -78 188
-17 998 -18 1195 0 347 30 807 89 872 112 60 20 198 134 278 230 l42 50 -1739
0 -1738 -1 111 -107z"/>
</g>
</svg>
